<?xml version="1.0" standalone="no"?>
<!DOCTYPE svg PUBLIC "-//W3C//DTD SVG 20010904//EN"
 "http://www.w3.org/TR/2001/REC-SVG-20010904/DTD/svg10.dtd">
<svg version="1.0" xmlns="http://www.w3.org/2000/svg"
 width="512.000000pt" height="512.000000pt" viewBox="0 0 512.000000 512.000000"
 preserveAspectRatio="xMidYMid meet">

<g transform="translate(0.000000,512.000000) scale(0.100000,-0.100000)"
fill="#000000" stroke="none">
<path d="M2375 4794 c-393 -41 -738 -161 -1043 -363 -530 -350 -874 -882 -984
-1521 -32 -184 -31 -522 1 -703 115 -651 458 -1174 1001 -1529 258 -169 565
-284 890 -334 159 -25 481 -25 640 0 416 64 788 230 1105 491 428 354 704 843
792 1405 24 159 24 481 0 640 -101 645 -445 1186 -981 1544 -270 181 -579 300
-906 351 -101 15 -433 28 -515 19z m300 -329 c210 -55 427 -277 576 -590 28
-59 47 -110 43 -115 -5 -4 -49 -15 -99 -23 -287 -51 -609 -68 -880 -46 -258
21 -284 20 -329 -15 -87 -66 -87 -186 1 -253 52 -40 205 -55 563 -57 316 -1
450 10 717 60 73 13 134 24 137 24 2 0 16 -53 31 -117 14 -65 31 -138 36 -162
20 -88 72 -131 157 -131 54 0 100 25 136 73 29 39 26 111 -13 276 -17 74 -31
138 -31 142 0 3 48 25 108 49 59 23 142 60 184 81 43 22 82 39 87 39 16 0 131
-188 191 -313 93 -193 157 -411 176 -599 l7 -68 -1437 0 -1437 0 5 33 c3 17 8
73 11 122 18 276 99 629 201 880 94 229 194 388 333 525 173 172 345 232 526
185z m-979 -242 c-56 -89 -115 -199 -156 -295 -19 -43 -39 -78 -47 -78 -16 0
-151 54 -208 83 l-44 22 67 58 c97 83 234 179 332 231 47 25 88 46 92 46 4 0
-12 -30 -36 -67z m1762 33 c38 -19 108 -61 158 -94 96 -65 260 -198 257 -209
-2 -9 -199 -93 -235 -100 -25 -5 -29 -2 -40 28 -20 58 -117 249 -161 318 -58
89 -59 91 -52 91 3 0 36 -15 73 -34z m-2325 -607 c58 -27 141 -63 184 -79 68
-25 78 -31 77 -52 -1 -12 -17 -102 -37 -198 -47 -229 -67 -400 -74 -650 -9
-332 30 -760 78 -837 25 -41 86 -72 140 -73 43 0 94 32 127 80 27 39 27 61 -2
300 -8 69 -16 155 -19 193 l-5 67 960 0 959 0 -5 -32 c-3 -18 -8 -73 -11 -123
-18 -276 -99 -629 -201 -880 -94 -229 -194 -387 -333 -526 -76 -76 -113 -104
-178 -136 -45 -23 -108 -47 -140 -53 -113 -24 -243 2 -362 72 -82 48 -227 197
-300 308 -75 115 -177 318 -165 330 9 8 190 40 354 62 59 7 220 12 427 13 319
0 333 1 359 21 45 33 67 70 71 121 5 66 -26 120 -88 151 -42 21 -64 23 -270
29 -136 3 -287 1 -384 -6 -424 -31 -852 -134 -1154 -277 -63 -30 -117 -54
-121 -54 -15 0 -133 194 -190 313 -93 193 -157 411 -176 599 l-7 67 186 3
c203 3 212 6 261 72 29 39 29 133 0 172 -49 66 -58 69 -261 72 l-186 3 7 67
c19 190 83 408 177 601 56 117 175 311 190 311 3 0 54 -23 112 -51z m3333
-1316 c-19 -190 -83 -407 -177 -602 -55 -116 -174 -311 -189 -311 -4 0 -58 24
-121 54 -63 29 -143 64 -179 76 -36 13 -69 27 -73 30 -5 4 5 68 22 141 34 152
67 371 76 504 3 50 8 109 11 133 l5 42 316 0 316 0 -7 -67z m-2944 -1095 c21
-59 128 -270 173 -339 25 -38 42 -69 39 -69 -4 0 -45 20 -93 45 -97 52 -226
141 -330 230 l-70 60 27 14 c51 28 207 90 225 91 11 0 22 -12 29 -32z m2247
-21 c56 -24 102 -48 101 -53 -2 -15 -157 -140 -254 -206 -77 -51 -215 -128
-231 -128 -2 0 15 30 39 68 57 88 115 198 157 295 39 93 30 92 188 24z"/>
</g>
</svg>
