<svg width="269" height="213" fill="none" xmlns="http://www.w3.org/2000/svg"><path stroke="#000" stroke-width="20" d="M136.742 128.856L96.064 202.09"/><ellipse cx="47.815" cy="203" rx="7.815" ry="10" fill="#000"/><ellipse cx="156.185" cy="203" rx="7.815" ry="10" fill="#000"/><path stroke="#000" stroke-width="20" d="M48 203h106.286"/><path d="M11.278 8.183a.455.455 0 01-.04-.236.535.535 0 01.092-.229.534.534 0 01.179-.168.455.455 0 01.234-.05H204.55a.5.5 0 01.465.317l52.707 134c.047.119.045.19.04.236a.54.54 0 01-.092.229.539.539 0 01-.179.168.448.448 0 01-.234.05H64.45a.5.5 0 01-.465-.317l-52.707-134z" fill="#000" stroke="#000" stroke-width="15"/><circle cx="203.5" cy="8.5" r="7.5" fill="#fff"/><circle cx="255.5" cy="141.5" r="7.5" fill="#fff"/><path stroke="#fff" stroke-width="15" d="M203.556 8.642l-110 198M202.978 8.11l53.289 135.282"/><circle cx="50.5" cy="202.5" r="7.5" fill="#fff"/><circle cx="154.5" cy="202.5" r="7.5" fill="#fff"/><path stroke="#fff" stroke-width="15" d="M52 202.5h102"/><circle cx="112.5" cy="82.5" r="7.5" fill="#fff"/><path stroke="#fff" stroke-width="15" d="M113.286 82.5h116.571"/><path stroke="#000" stroke-width="10" d="M203.369 9.432L95.042 204.057"/><circle cx="203.5" cy="9" r="5" fill="#000"/><ellipse cx="53.122" cy="202.5" rx="7.122" ry="5" fill="#000"/><ellipse cx="151.878" cy="202.5" rx="7.122" ry="5" fill="#000"/><path stroke="#000" stroke-width="10" d="M54.546 202.5h96.857M203.652 9.234l52.338 132.867"/><circle cx="255.7" cy="141.5" r="5" fill="#000"/><ellipse cx="113.319" cy="82.5" rx="5.319" ry="5" fill="#000"/><path stroke="#000" stroke-width="10" d="M114.382 82.5H232"/></svg>