<svg width="726" height="213" viewBox="0 0 726 213" fill="none" xmlns="http://www.w3.org/2000/svg">
<line x1="136.742" y1="128.856" x2="96.0638" y2="202.09" stroke="#14213D" stroke-width="20"/>
<ellipse cx="47.8151" cy="203" rx="7.81513" ry="10" fill="#14213D"/>
<ellipse cx="156.185" cy="203" rx="7.81513" ry="10" fill="#14213D"/>
<line x1="48" y1="203" x2="154.286" y2="203" stroke="#14213D" stroke-width="20"/>
<path d="M11.278 8.18304C11.231 8.06353 11.2326 7.99349 11.2385 7.94673C11.2464 7.88426 11.273 7.80229 11.3301 7.71849C11.3871 7.6347 11.4537 7.57994 11.5089 7.54973C11.5503 7.52712 11.6149 7.5 11.7433 7.5H204.55C204.756 7.5 204.94 7.62574 205.015 7.817L257.722 141.817C257.769 141.936 257.767 142.007 257.762 142.053C257.754 142.116 257.727 142.198 257.67 142.282C257.613 142.365 257.546 142.42 257.491 142.45C257.45 142.473 257.385 142.5 257.257 142.5H64.4499C64.2444 142.5 64.0599 142.374 63.9846 142.183L11.278 8.18304Z" fill="#14213D" stroke="#14213D" stroke-width="15"/>
<circle cx="203.5" cy="8.5" r="7.5" fill="white"/>
<circle cx="255.5" cy="141.5" r="7.5" fill="white"/>
<line x1="203.556" y1="8.64232" x2="93.5562" y2="206.642" stroke="white" stroke-width="15"/>
<line x1="202.978" y1="8.11013" x2="256.267" y2="143.392" stroke="white" stroke-width="15"/>
<circle cx="50.5" cy="202.5" r="7.5" fill="white"/>
<circle cx="154.5" cy="202.5" r="7.5" fill="white"/>
<line x1="52" y1="202.5" x2="154" y2="202.5" stroke="white" stroke-width="15"/>
<circle cx="112.5" cy="82.5" r="7.5" fill="white"/>
<line x1="113.286" y1="82.5" x2="229.857" y2="82.5" stroke="white" stroke-width="15"/>
<line x1="203.369" y1="9.43168" x2="95.0418" y2="204.057" stroke="#14213D" stroke-width="10"/>
<circle cx="203.5" cy="9" r="5" fill="#14213D"/>
<ellipse cx="53.1218" cy="202.5" rx="7.12185" ry="5" fill="#14213D"/>
<ellipse cx="151.878" cy="202.5" rx="7.12185" ry="5" fill="#14213D"/>
<line x1="54.5462" y1="202.5" x2="151.403" y2="202.5" stroke="#14213D" stroke-width="10"/>
<line x1="203.652" y1="9.23378" x2="255.99" y2="142.101" stroke="#14213D" stroke-width="10"/>
<circle cx="255.7" cy="141.5" r="5" fill="#14213D"/>
<ellipse cx="113.319" cy="82.5" rx="5.31863" ry="5" fill="#14213D"/>
<line x1="114.382" y1="82.5" x2="232" y2="82.5" stroke="#14213D" stroke-width="10"/>
<circle cx="290" cy="202" r="10" transform="rotate(-90 290 202)" fill="#14213D"/>
<circle cx="290" cy="11" r="10" transform="rotate(-90 290 11)" fill="#14213D"/>
<line x1="290" y1="203" x2="290" y2="11" stroke="#14213D" stroke-width="20"/>
<circle cx="290" cy="202.5" r="7.5" transform="rotate(-90 290 202.5)" fill="white"/>
<circle cx="290" cy="10.5" r="7.5" transform="rotate(-90 290 10.5)" fill="white"/>
<line x1="290" y1="201" x2="290" y2="9" stroke="white" stroke-width="15"/>
<circle cx="290" cy="202.5" r="5" transform="rotate(-90 290 202.5)" fill="#14213D"/>
<circle cx="290" cy="10" r="5" transform="rotate(-90 290 10)" fill="#14213D"/>
<line x1="290" y1="202" x2="290" y2="10" stroke="#14213D" stroke-width="10"/>
<path d="M318.87 30H326.57V79H318.87V30ZM342.837 30H354.247C358.213 30 361.107 30.9333 362.927 32.8C364.747 34.62 365.657 37.4433 365.657 41.27V44.28C365.657 49.3667 363.977 52.5867 360.617 53.94V54.08C362.483 54.64 363.79 55.7833 364.537 57.51C365.33 59.2367 365.727 61.5467 365.727 64.44V73.05C365.727 74.45 365.773 75.5933 365.867 76.48C365.96 77.32 366.193 78.16 366.567 79H358.727C358.447 78.2067 358.26 77.46 358.167 76.76C358.073 76.06 358.027 74.8 358.027 72.98V64.02C358.027 61.78 357.653 60.2167 356.907 59.33C356.207 58.4433 354.97 58 353.197 58H350.537V79H342.837V30ZM353.337 51C354.877 51 356.02 50.6033 356.767 49.81C357.56 49.0167 357.957 47.6867 357.957 45.82V42.04C357.957 40.2667 357.63 38.9833 356.977 38.19C356.37 37.3967 355.39 37 354.037 37H350.537V51H353.337ZM381.569 30H389.269V79H381.569V30ZM405.536 30H415.196L422.686 59.33H422.826V30H429.686V79H421.776L412.536 43.23H412.396V79H405.536V30ZM451.859 30H462.289L470.269 79H462.569L461.169 69.27V69.41H452.419L451.019 79H443.879L451.859 30ZM460.259 62.76L456.829 38.54H456.689L453.329 62.76H460.259ZM324.82 100H335.25L343.23 149H335.53L334.13 139.27V139.41H325.38L323.98 149H316.84L324.82 100ZM333.22 132.76L329.79 108.54H329.65L326.29 132.76H333.22ZM356.199 142.14L370.479 107H356.899V100H378.739V106.86L364.459 142H378.739V149H356.199V142.14ZM393.6 100H401.3V149H393.6V100ZM416.027 142.14L430.307 107H416.727V100H438.567V106.86L424.287 142H438.567V149H416.027V142.14ZM464.559 149.7C460.779 149.7 457.885 148.627 455.879 146.48C453.872 144.333 452.869 141.3 452.869 137.38V111.62C452.869 107.7 453.872 104.667 455.879 102.52C457.885 100.373 460.779 99.3 464.559 99.3C468.339 99.3 471.232 100.373 473.239 102.52C475.245 104.667 476.249 107.7 476.249 111.62V137.38C476.249 141.3 475.245 144.333 473.239 146.48C471.232 148.627 468.339 149.7 464.559 149.7ZM464.559 142.7C467.219 142.7 468.549 141.09 468.549 137.87V111.13C468.549 107.91 467.219 106.3 464.559 106.3C461.899 106.3 460.569 107.91 460.569 111.13V137.87C460.569 141.09 461.899 142.7 464.559 142.7ZM489.789 100H497.559L502.599 138.01H502.739L507.779 100H514.849L507.429 149H497.209L489.789 100ZM533.015 100H543.445L551.425 149H543.725L542.325 139.27V139.41H533.575L532.175 149H525.035L533.015 100ZM541.415 132.76L537.985 108.54H537.845L534.485 132.76H541.415Z" fill="#14213D"/>
</svg>
