<?xml version="1.0" standalone="no"?>
<!DOCTYPE svg PUBLIC "-//W3C//DTD SVG 20010904//EN"
 "http://www.w3.org/TR/2001/REC-SVG-20010904/DTD/svg10.dtd">
<svg version="1.0" xmlns="http://www.w3.org/2000/svg"
 width="1076.000000pt" height="1076.000000pt" viewBox="0 0 1076.000000 1076.000000"
 preserveAspectRatio="xMidYMid meet">
<metadata>
Created by potrace 1.14, written by Peter Selinger 2001-2017
</metadata>
<g transform="translate(0.000000,1076.000000) scale(0.100000,-0.100000)"
fill="#000000" stroke="none">
<path d="M395 9631 c-16 -4 -46 -15 -66 -25 -43 -20 -129 -101 -129 -122 0 -8
-4 -14 -10 -14 -12 0 -32 -71 -36 -133 -6 -66 10 -118 103 -352 110 -276 138
-349 135 -357 -1 -5 3 -8 8 -8 6 0 10 -6 10 -12 0 -7 36 -103 79 -213 44 -110
125 -317 181 -460 56 -143 106 -269 111 -280 4 -11 18 -45 29 -75 11 -30 25
-64 30 -75 13 -28 174 -439 175 -445 0 -6 41 -108 61 -155 7 -16 34 -84 59
-150 26 -66 52 -131 58 -145 5 -14 11 -27 11 -30 1 -6 25 -68 37 -95 32 -77
68 -166 69 -170 0 -3 7 -21 15 -41 8 -20 15 -38 15 -40 0 -1 5 -15 12 -31 6
-15 12 -30 13 -33 3 -8 24 -62 40 -100 13 -33 75 -191 200 -510 31 -80 76
-194 100 -255 39 -99 55 -140 60 -155 4 -11 26 -66 35 -87 11 -25 18 -43 45
-113 9 -25 22 -56 27 -70 5 -14 10 -27 10 -30 0 -3 5 -14 11 -25 6 -11 12 -22
12 -25 0 -5 17 -50 35 -95 4 -11 17 -41 29 -67 12 -26 21 -54 21 -62 0 -8 5
-18 10 -21 6 -3 10 -13 10 -21 0 -8 9 -33 19 -57 19 -42 190 -473 195 -492 1
-5 8 -23 16 -40 7 -16 16 -39 20 -50 25 -63 53 -115 63 -115 5 0 8 -3 4 -6 -3
-4 6 -19 21 -34 29 -28 112 -84 112 -75 0 3 9 1 20 -5 26 -14 131 -22 265 -21
44 0 87 0 95 0 8 0 50 0 92 1 42 1 81 -1 87 -4 5 -4 12 -2 15 3 4 6 18 6 35 1
15 -4 34 -4 41 0 6 4 26 4 44 1 17 -4 42 -6 56 -4 14 2 46 3 73 3 26 0 55 0
65 0 24 0 63 -1 87 -4 11 -1 35 1 53 5 17 4 48 3 67 -1 19 -4 37 -4 40 0 3 4
20 5 37 1 18 -4 44 -6 58 -4 14 2 46 3 73 3 26 0 55 0 65 0 24 0 63 -1 87 -4
11 -1 35 1 52 5 18 4 49 3 68 -1 19 -4 37 -4 40 0 3 4 20 5 37 1 18 -4 42 -6
53 -5 45 5 131 6 253 4 9 0 41 0 70 1 l53 0 -36 -68 c-20 -37 -40 -75 -45 -83
-25 -39 -120 -213 -120 -220 0 -5 -3 -10 -8 -12 -4 -1 -17 -23 -30 -48 -12
-25 -41 -76 -63 -115 -22 -38 -45 -81 -52 -95 -6 -14 -14 -27 -18 -30 -3 -3
-12 -18 -20 -35 -21 -42 -100 -188 -109 -200 -4 -5 -23 -39 -42 -75 -35 -65
-74 -134 -111 -200 -11 -19 -38 -69 -60 -110 -22 -41 -43 -77 -46 -80 -3 -3
-14 -21 -23 -40 -56 -113 -171 -309 -179 -304 -4 2 -10 0 -14 -5 -3 -6 -15 -7
-28 -3 -12 5 -38 6 -57 3 -19 -4 -110 -4 -202 -1 -93 3 -182 2 -198 -1 -17 -4
-32 -3 -35 1 -2 4 -21 4 -40 1 -20 -3 -113 -4 -206 -1 -93 3 -183 2 -199 -1
-17 -4 -32 -3 -35 1 -2 4 -21 4 -40 1 -20 -3 -113 -4 -206 -1 -93 3 -183 2
-199 -1 -17 -4 -33 -3 -36 2 -3 5 -10 7 -15 3 -6 -3 -51 -5 -102 -5 -64 1
-107 -4 -140 -16 -50 -18 -147 -96 -147 -118 0 -7 -3 -15 -7 -17 -25 -10 -58
-105 -68 -193 -8 -66 -8 -63 -1 -115 22 -165 114 -291 241 -329 25 -8 4455 -7
4475 0 50 19 70 30 103 60 45 40 91 112 114 177 18 51 27 238 12 248 -5 3 -7
9 -4 14 3 5 0 21 -6 37 -38 92 -56 121 -105 169 -49 49 -60 56 -80 53 -4 0
-10 5 -15 12 -8 14 -52 16 -366 19 -101 1 -187 -1 -192 -4 -5 -4 -12 -2 -15 2
-3 5 -22 6 -41 3 -20 -3 -113 -4 -206 -1 -93 3 -183 2 -199 -1 -17 -4 -33 -3
-36 2 -3 5 -10 7 -15 3 -12 -7 -287 -7 -299 1 -5 3 -11 2 -14 -3 -2 -4 -31 -5
-64 -2 -32 3 -69 3 -81 0 -12 -3 -56 -3 -97 0 -41 3 -81 3 -89 0 -8 -3 -39 -3
-69 -2 l-54 4 34 58 c19 32 34 63 34 69 0 6 3 11 8 11 4 0 16 20 27 45 11 25
23 45 28 45 4 0 6 4 2 9 -3 5 -1 12 4 15 5 3 21 29 36 58 15 29 34 61 43 71 8
9 11 17 6 17 -5 0 -4 4 1 8 10 7 16 19 74 127 14 28 31 53 36 57 7 5 7 8 0 8
-7 0 -7 3 0 8 6 4 17 21 26 37 41 76 83 152 110 196 16 27 25 49 21 49 -4 0
-2 4 4 8 6 4 30 43 54 87 23 44 71 131 106 192 35 62 64 117 64 123 0 5 4 10
8 10 5 0 16 17 25 38 9 20 30 62 48 92 17 30 47 84 67 120 85 155 85 155 128
157 21 1 44 2 49 3 6 1 35 1 65 1 113 -2 204 0 211 5 4 2 10 0 14 -6 4 -6 10
-8 15 -5 4 3 34 5 67 5 32 0 76 0 98 1 43 2 95 0 135 -4 14 -2 40 0 58 4 17 4
48 3 67 -1 19 -4 37 -4 40 0 3 4 21 4 40 0 19 -4 37 -4 40 0 3 4 21 4 40 0 19
-4 37 -4 40 0 3 4 20 5 37 1 18 -4 44 -6 58 -4 14 2 46 3 73 3 26 0 55 0 65 0
24 0 63 -1 87 -4 11 -1 35 1 53 5 17 4 48 3 67 -1 19 -4 37 -4 40 0 3 4 21 4
40 0 19 -4 37 -4 40 0 3 4 21 4 40 0 19 -4 37 -4 40 0 3 4 20 5 37 1 18 -4 44
-6 58 -4 14 2 46 3 73 3 26 0 55 0 65 0 24 0 63 -1 87 -4 11 -1 35 1 53 5 17
4 48 3 67 -1 19 -4 37 -4 40 0 3 4 20 5 37 1 18 -4 44 -6 58 -4 14 2 46 3 73
3 26 0 55 0 65 0 24 0 63 -1 87 -4 11 -1 35 1 53 5 17 4 48 3 67 -1 19 -4 37
-4 40 0 3 4 20 5 37 1 18 -4 44 -6 58 -4 14 2 46 3 73 3 26 0 55 0 65 0 24 0
63 -1 87 -4 11 -1 35 1 52 5 18 4 49 3 68 -1 19 -4 37 -4 40 0 3 4 20 5 37 1
18 -4 44 -6 58 -4 14 2 46 3 73 3 26 0 55 0 65 0 9 0 28 0 42 -1 14 0 36 -1
50 -1 99 2 157 2 170 1 8 -1 51 -1 95 0 44 0 87 0 95 0 8 0 50 0 92 1 42 1 81
-1 87 -4 5 -4 12 -2 15 3 4 6 18 6 35 1 15 -4 34 -4 41 0 6 4 26 4 44 1 17 -4
42 -6 56 -4 14 2 46 3 73 3 26 0 55 0 65 0 24 0 63 -1 87 -4 11 -1 35 1 53 5
17 4 48 3 67 -1 19 -4 37 -4 40 0 3 4 20 5 37 1 18 -4 42 -6 53 -5 39 4 91 6
138 4 92 -3 203 21 245 55 54 41 100 101 118 153 23 64 31 157 15 176 -5 6
-10 21 -9 31 0 11 -18 64 -41 117 -22 54 -41 105 -41 113 0 8 -5 15 -11 15 -6
0 -9 7 -5 15 3 8 0 15 -6 15 -6 0 -9 3 -5 6 3 4 -1 20 -10 37 -19 38 -65 158
-66 175 0 6 -4 12 -9 12 -4 0 -8 5 -8 11 0 11 -155 409 -182 469 -6 14 -12 30
-14 36 -1 8 -160 416 -195 502 -5 12 -13 32 -18 45 -5 12 -16 38 -25 59 -9 20
-16 39 -16 43 0 4 -6 21 -14 38 -18 41 -77 193 -81 207 0 3 -8 21 -17 40 -8
19 -21 51 -28 70 -7 19 -21 54 -31 77 -11 24 -19 45 -19 48 0 5 -93 243 -109
280 -5 11 -28 70 -51 130 -24 61 -49 124 -56 140 -7 17 -20 50 -29 75 -10 25
-23 59 -31 77 -8 17 -14 34 -14 38 0 4 -6 21 -14 38 -39 90 -49 119 -49 132 0
8 -4 15 -8 15 -4 0 -11 15 -15 32 -3 18 -13 42 -20 53 -7 11 -13 22 -12 25 1
3 -9 27 -20 54 -12 27 -22 51 -22 54 0 6 -55 150 -75 197 -7 17 -18 44 -25 60
-7 17 -16 38 -21 47 -5 10 -9 23 -9 29 0 6 -7 25 -15 42 -8 18 -53 131 -100
252 -47 121 -90 229 -95 240 -4 11 -27 70 -51 130 -23 61 -46 114 -51 120 -4
5 -8 19 -8 32 0 13 -5 23 -11 23 -5 0 -8 4 -5 8 2 4 -1 21 -9 37 -39 90 -45
104 -45 110 0 4 -6 21 -14 38 -8 18 -51 127 -96 242 -45 116 -88 224 -95 240
-7 17 -21 50 -30 75 -9 25 -21 54 -26 65 -5 11 -13 34 -19 50 -20 55 -35 85
-42 85 -5 0 -8 6 -8 14 0 25 -81 97 -138 124 l-57 27 -3915 1 c-2153 1 -3928
-1 -3945 -5z"/>
</g>
</svg>
